<svg width="25" height="25" viewBox="0 0 25 25" fill="none" xmlns="http://www.w3.org/2000/svg">
<g id="basket" clip-path="url(#clip0_68_181)">
<path id="Vector" d="M13 10.5556H23.6418C23.2431 13.211 22.3668 14.9594 21.9672 15.6618C20.735 17.8126 19.0765 19.7612 17.3966 21.219C15.6958 22.6949 14.0615 23.5917 12.8883 23.7753C12.5847 23.8193 12.3392 23.8154 12.131 23.7785L12.1231 23.7771L12.1152 23.7759C10.9418 23.5935 9.3059 22.6964 7.6034 21.219C5.92354 19.7612 4.26506 17.8127 3.03291 15.6619C2.63326 14.9596 1.75688 13.2112 1.35822 10.5556H12H13Z" stroke="black" stroke-width="1.5"/>
<path id="Vector_2" d="M5.9342 9.89952L5.99999 8.44985C5.99999 8.44985 5.99999 7.4163 6.65789 6.08744C7.02631 5.34918 7.57894 4.66462 8.19736 3.91294C8.86841 3.10757 9.73684 2.43643 10.5921 1.8861C11.3684 1.37603 12.0658 1.21495 12.4342 1.21495C13.3158 1.21495 13.8158 1.49683 14.7105 2.08744C15.4079 2.53039 16.1184 3.09415 16.7105 3.77871C17.3289 4.50355 17.7632 4.9465 18.2632 5.95321C19.0789 7.59079 19.0263 8.44985 19.0263 8.44985L19.0658 9.80556" stroke="black" stroke-width="1.5" stroke-miterlimit="10"/>
</g>
<defs>
<clipPath id="clip0_68_181">
<rect width="24" height="24" fill="white" transform="translate(0.5 0.557236)"/>
</clipPath>
</defs>
</svg>
