<svg width="27" height="21" viewBox="0 0 27 21" fill="none" xmlns="http://www.w3.org/2000/svg">
<g clip-path="url(#clip0_131_4629)">
<path d="M26.2801 3.47094C26.2801 3.23566 25.9368 3.04493 25.5133 3.04493H13.4999L1.48654 3.04492C1.06304 3.04492 0.719727 3.23565 0.719727 3.47093V4.36167C0.719727 4.59695 1.06304 4.78767 1.48654 4.78767H13.4999H19.5066H25.5133C25.9368 4.78767 26.2801 4.59695 26.2801 4.36167V3.47094Z" fill="#0C0C0C"/>
<path d="M26.2801 9.57055C26.2801 9.33527 25.9368 9.14454 25.5133 9.14454H13.4999L1.48654 9.14453C1.06304 9.14453 0.719727 9.33526 0.719727 9.57053V10.4613C0.719727 10.6966 1.06304 10.8873 1.48654 10.8873H13.4999H25.5133C25.9368 10.8873 26.2801 10.6966 26.2801 10.4613V9.57055Z" fill="#0C0C0C"/>
<path d="M26.2801 15.6702C26.2801 15.4349 25.9368 15.2442 25.5133 15.2442H13.4999L1.48654 15.2441C1.06304 15.2441 0.719727 15.4349 0.719727 15.6701V16.5609C0.719727 16.7962 1.06304 16.9869 1.48654 16.9869H13.4999H25.5133C25.9368 16.9869 26.2801 16.7962 26.2801 16.5609V15.6702Z" fill="#0C0C0C"/>
</g>
<defs>
<clipPath id="clip0_131_4629">
<rect width="25.5604" height="19.1703" fill="white" transform="translate(0.719727 0.914795)"/>
</clipPath>
</defs>
</svg>
