<svg width="28" height="29" viewBox="0 0 28 29" fill="none" xmlns="http://www.w3.org/2000/svg">
<g id="Group 27">
<path id="Vector" d="M15.9633 11.7725L15.9772 11.7938L15.9896 11.816C16.018 11.8669 16.0532 11.9087 16.0986 11.9454L16.1151 11.9588L16.1309 11.9731C16.4822 12.2919 17.1815 12.6273 18.1082 12.8504C19.0151 13.0687 20.0495 13.1573 21.003 13.0547L21.0042 13.0546C21.3331 13.0197 22.1743 12.8848 23.0818 12.3016C23.8214 11.6629 23.9843 10.9957 24.0849 10.5839C24.0951 10.5418 24.1048 10.5024 24.1143 10.4659L24.1142 10.4659L24.1175 10.454C24.3771 9.52327 24.4657 8.48151 24.4058 7.54897C24.3463 6.62218 24.1467 5.90016 23.9064 5.50611L23.906 5.50564L23.9054 5.50491L23.9048 5.50418L23.9042 5.50345L23.9036 5.50272L23.9029 5.50199L23.9023 5.50126L23.9017 5.50053L23.9011 5.4998L23.9005 5.49907L23.8999 5.49834L23.8993 5.49761L23.8986 5.49688L23.898 5.49616L23.8974 5.49543L23.8968 5.4947L23.8962 5.49397L23.8956 5.49324L23.895 5.49252L23.8944 5.49179L23.8937 5.49106L23.8931 5.49034L23.8925 5.48961L23.8919 5.48888L23.8913 5.48816L23.8907 5.48743L23.8901 5.48671L23.8895 5.48598L23.8889 5.48526L23.8882 5.48453L23.8876 5.48381L23.887 5.48308L23.8864 5.48236L23.8858 5.48163L23.8852 5.48091L23.8846 5.48019L23.884 5.47946L23.8834 5.47874L23.8828 5.47802L23.8821 5.4773L23.8815 5.47657L23.8809 5.47585L23.8803 5.47513L23.8797 5.47441L23.8791 5.47369L23.8785 5.47296L23.8779 5.47224L23.8773 5.47152L23.8767 5.4708L23.8761 5.47008L23.8755 5.46936L23.8749 5.46864L23.8742 5.46792L23.8736 5.4672L23.873 5.46648L23.8724 5.46576L23.8718 5.46504L23.8712 5.46432L23.8706 5.46361L23.87 5.46289L23.8694 5.46217L23.8688 5.46145L23.8682 5.46073L23.8676 5.46002L23.867 5.4593L23.8664 5.45858L23.8658 5.45786L23.8652 5.45715L23.8646 5.45643L23.864 5.45571L23.8634 5.455L23.8628 5.45428L23.8622 5.45357L23.8616 5.45285L23.861 5.45214L23.8603 5.45142L23.8597 5.45071L23.8591 5.44999L23.8585 5.44928L23.8579 5.44856L23.8573 5.44785L23.8567 5.44713L23.8561 5.44642L23.8555 5.44571L23.8549 5.44499L23.8543 5.44428L23.8537 5.44357L23.8531 5.44285L23.8525 5.44214L23.8519 5.44143L23.8513 5.44072L23.8507 5.44L23.8501 5.43929L23.8495 5.43858L23.8489 5.43787L23.8483 5.43716L23.8477 5.43645L23.8471 5.43574L23.8465 5.43502L23.8459 5.43431L23.8453 5.4336L23.8447 5.43289L23.8441 5.43218L23.8435 5.43147L23.8429 5.43076L23.8423 5.43005L23.8418 5.42935L23.8412 5.42864L23.8406 5.42793L23.84 5.42722L23.8394 5.42651L23.8388 5.4258L23.8382 5.42509L23.8376 5.42439L23.837 5.42368L23.8364 5.42297L23.8358 5.42226L23.8352 5.42156L23.8346 5.42085L23.834 5.42014L23.8334 5.41943L23.8328 5.41873L23.8322 5.41802L23.8316 5.41731L23.831 5.41661L23.8304 5.4159L23.8298 5.4152L23.8292 5.41449L23.8286 5.41379L23.8281 5.41308L23.8275 5.41238L23.8269 5.41167L23.8263 5.41097L23.8257 5.41026L23.8251 5.40956L23.8245 5.40885L23.8239 5.40815L23.8233 5.40745L23.8227 5.40674L23.8221 5.40604L23.8215 5.40533L23.8209 5.40463L23.8203 5.40393L23.8197 5.40323L23.8192 5.40252L23.8186 5.40182L23.818 5.40112L23.8174 5.40042L23.8168 5.39971L23.8162 5.39901L23.8156 5.39831L23.815 5.39761L23.8144 5.39691L23.8138 5.39621L23.8132 5.3955L23.8127 5.3948L23.8121 5.3941L23.8115 5.3934L23.8109 5.3927L23.8103 5.392L23.8097 5.3913L23.8091 5.3906L23.8085 5.3899L23.8079 5.3892L23.8073 5.3885L23.8068 5.3878L23.8062 5.3871L23.8056 5.3864L23.805 5.3857L23.8044 5.38501L23.8038 5.38431L23.8032 5.38361L23.8026 5.38291L23.802 5.38221L23.8015 5.38151L23.8009 5.38082L23.8003 5.38012L23.7997 5.37942L23.7991 5.37872L23.7985 5.37803L23.7979 5.37733L23.7973 5.37663L23.7968 5.37593L23.7962 5.37524L23.7956 5.37454L23.795 5.37384L23.7944 5.37315L23.7938 5.37245L23.7932 5.37176L23.7927 5.37106L23.7921 5.37036L23.7915 5.36967L23.7909 5.36897L23.7903 5.36828L23.7897 5.36758L23.7891 5.36689L23.7886 5.36619L23.788 5.3655L23.7874 5.3648L23.7868 5.36411L23.7862 5.36341L23.7856 5.36272L23.785 5.36202L23.7845 5.36133L23.7839 5.36064L23.7833 5.35994L23.7827 5.35925L23.7821 5.35856L23.7815 5.35786L23.781 5.35717L23.7804 5.35648L23.7798 5.35578L23.7792 5.35509L23.7786 5.3544L23.778 5.3537L23.7774 5.35301L23.7769 5.35232L23.7763 5.35163L23.7757 5.35093L23.7751 5.35024L23.7745 5.34955L23.774 5.34886L23.7734 5.34817L23.7728 5.34748L23.7722 5.34678L23.7716 5.34609L23.771 5.3454L23.7705 5.34471L23.7699 5.34402L23.7693 5.34333L23.7687 5.34264L23.7681 5.34195L23.7675 5.34126L23.767 5.34057L23.7664 5.33988L23.7658 5.33919L23.7652 5.3385L23.7646 5.33781L23.7641 5.33712L23.7635 5.33643L23.7629 5.33574L23.7623 5.33505L23.7617 5.33436L23.7612 5.33367L23.7606 5.33298L23.76 5.33229L23.7594 5.3316L23.7588 5.33092L23.7583 5.33023L23.7577 5.32954L23.7571 5.32885L23.7565 5.32816L23.7559 5.32747L23.7554 5.32678L23.7548 5.3261L23.7542 5.32541L23.7536 5.32472L23.753 5.32403L23.7525 5.32335L23.7519 5.32266L23.7513 5.32197L23.7507 5.32128L23.7501 5.3206L23.7496 5.31991L23.749 5.31922L23.7484 5.31854L23.7478 5.31785L23.7472 5.31716L23.7467 5.31648L23.7461 5.31579L23.7455 5.3151L23.7449 5.31442L23.7444 5.31373L23.7438 5.31304L23.7432 5.31236L23.7426 5.31167L23.742 5.31099L23.7415 5.3103L23.7409 5.30962L23.7403 5.30893L23.7397 5.30824L23.7392 5.30756L23.7386 5.30687L23.738 5.30619L23.7374 5.3055L23.7369 5.30482L23.7363 5.30413L23.7357 5.30345L23.7351 5.30276L23.7345 5.30208L23.734 5.3014L23.7334 5.30071L23.7328 5.30003L23.7322 5.29934L23.7317 5.29866L23.7311 5.29797L23.7305 5.29729L23.7299 5.29661L23.7294 5.29592L23.7288 5.29524L23.7282 5.29455L23.7276 5.29387L23.7271 5.29319L23.7265 5.2925L23.7259 5.29182L23.7253 5.29114L23.7248 5.29045L23.7242 5.28977L23.7236 5.28909L23.723 5.28841L23.7224 5.28772L23.7219 5.28704L23.7213 5.28636L23.7207 5.28567L23.7201 5.28499L23.7196 5.28431L23.719 5.28363L23.7184 5.28294L23.7178 5.28226L23.7173 5.28158L23.7167 5.2809L23.7161 5.28022L23.7156 5.27953L23.715 5.27885L23.7144 5.27817L23.7138 5.27749L23.7133 5.27681L23.7127 5.27612L23.7121 5.27544L23.7115 5.27476L23.711 5.27408L23.7104 5.2734L23.7098 5.27272L23.7092 5.27204L23.7087 5.27135L23.7081 5.27067L23.7075 5.26999L23.7069 5.26931L23.7064 5.26863L23.7058 5.26795L23.7052 5.26727L23.7046 5.26659L23.7041 5.26591L23.7035 5.26523L23.7029 5.26455L23.7024 5.26387L23.7018 5.26319L23.7012 5.26251L23.7006 5.26182L23.7001 5.26114L23.6995 5.26046L23.6989 5.25978L23.6983 5.2591L23.6978 5.25842L23.6972 5.25774L23.6966 5.25706L23.696 5.25638L23.6955 5.2557L23.6949 5.25502L23.6943 5.25434L23.6938 5.25367L23.6932 5.25299L23.6926 5.25231L23.692 5.25163L23.6915 5.25095L23.6909 5.25027L23.6903 5.24959L23.6898 5.24891L23.6892 5.24823L23.6886 5.24755L23.688 5.24687L23.6875 5.24619L23.6869 5.24551L23.6863 5.24483L23.6857 5.24415L23.6852 5.24348L23.6846 5.2428L23.684 5.24212L23.6835 5.24144L23.6829 5.24076L23.6823 5.24008L23.6817 5.2394L23.6812 5.23872L23.6806 5.23804L23.68 5.23737L23.6795 5.23669L23.6789 5.23601L23.6783 5.23533L23.6777 5.23465L23.6772 5.23397L23.6766 5.2333L23.676 5.23262L23.6755 5.23194L23.6749 5.23126L23.6743 5.23058L23.6737 5.2299L23.6733 5.22941C23.312 4.91974 22.6278 4.59822 21.7301 4.38211C20.8232 4.16379 19.7887 4.07519 18.8353 4.17784L18.8341 4.17796C18.5146 4.21186 17.6818 4.35297 16.7582 4.94922C16.0302 5.57693 15.8713 6.19665 15.7621 6.62232C15.7477 6.67835 15.7342 6.73101 15.7204 6.77989C15.4611 7.71024 15.3727 8.75118 15.4336 9.68417C15.4961 10.6397 15.7082 11.3808 15.9633 11.7725Z" stroke="white" stroke-width="1.5"/>
<path id="Vector_2" d="M4.32904 23.4609L4.34293 23.4822L4.35534 23.5044C4.38732 23.5616 4.42713 23.6089 4.47811 23.6501L4.49468 23.6635L4.51046 23.6779C4.88472 24.0175 5.6237 24.3706 6.59682 24.6049C7.55007 24.8344 8.63754 24.9276 9.64062 24.8196L9.64177 24.8195C9.98976 24.7826 10.8777 24.6401 11.8352 24.0241C12.6202 23.3471 12.7932 22.6379 12.8988 22.2053C12.9096 22.1613 12.9196 22.1201 12.9295 22.0821L12.9294 22.0821L12.9327 22.0702C13.2058 21.0912 13.2989 19.9962 13.2359 19.016C13.1733 18.0413 12.963 17.2774 12.7064 16.858L12.7062 16.8577L12.7055 16.857L12.7049 16.8562L12.7042 16.8554L12.7036 16.8547L12.7029 16.8539L12.7023 16.8531L12.7016 16.8524L12.701 16.8516L12.7004 16.8509L12.6997 16.8501L12.6991 16.8493L12.6984 16.8486L12.6978 16.8478L12.6971 16.847L12.6965 16.8463L12.6959 16.8455L12.6952 16.8447L12.6946 16.844L12.6939 16.8432L12.6933 16.8425L12.6926 16.8417L12.692 16.8409L12.6914 16.8402L12.6907 16.8394L12.6901 16.8387L12.6894 16.8379L12.6888 16.8371L12.6882 16.8364L12.6875 16.8356L12.6869 16.8349L12.6862 16.8341L12.6856 16.8333L12.685 16.8326L12.6843 16.8318L12.6837 16.8311L12.683 16.8303L12.6824 16.8295L12.6818 16.8288L12.6811 16.828L12.6805 16.8273L12.6799 16.8265L12.6792 16.8258L12.6786 16.825L12.6779 16.8242L12.6773 16.8235L12.6767 16.8227L12.676 16.822L12.6754 16.8212L12.6748 16.8205L12.6741 16.8197L12.6735 16.819L12.6729 16.8182L12.6722 16.8174L12.6716 16.8167L12.6709 16.8159L12.6703 16.8152L12.6697 16.8144L12.669 16.8137L12.6684 16.8129L12.6678 16.8122L12.6671 16.8114L12.6665 16.8107L12.6659 16.8099L12.6652 16.8092L12.6646 16.8084L12.664 16.8077L12.6633 16.8069L12.6627 16.8062L12.6621 16.8054L12.6614 16.8047L12.6608 16.8039L12.6602 16.8032L12.6595 16.8024L12.6589 16.8017L12.6583 16.8009L12.6577 16.8002L12.657 16.7994L12.6564 16.7987L12.6558 16.7979L12.6551 16.7972L12.6545 16.7964L12.6539 16.7957L12.6532 16.7949L12.6526 16.7942L12.652 16.7934L12.6513 16.7927L12.6507 16.7919L12.6501 16.7912L12.6495 16.7904L12.6488 16.7897L12.6482 16.7889L12.6476 16.7882L12.6469 16.7874L12.6463 16.7867L12.6457 16.786L12.6451 16.7852L12.6444 16.7845L12.6438 16.7837L12.6432 16.783L12.6426 16.7822L12.6419 16.7815L12.6413 16.7807L12.6407 16.78L12.64 16.7793L12.6394 16.7785L12.6388 16.7778L12.6382 16.777L12.6375 16.7763L12.6369 16.7755L12.6363 16.7748L12.6357 16.7741L12.635 16.7733L12.6344 16.7726L12.6338 16.7718L12.6332 16.7711L12.6325 16.7703L12.6319 16.7696L12.6313 16.7689L12.6307 16.7681L12.63 16.7674L12.6294 16.7666L12.6288 16.7659L12.6282 16.7652L12.6275 16.7644L12.6269 16.7637L12.6263 16.7629L12.6257 16.7622L12.6251 16.7615L12.6244 16.7607L12.6238 16.76L12.6232 16.7592L12.6226 16.7585L12.6219 16.7578L12.6213 16.757L12.6207 16.7563L12.6201 16.7556L12.6195 16.7548L12.6188 16.7541L12.6182 16.7533L12.6176 16.7526L12.617 16.7519L12.6164 16.7511L12.6157 16.7504L12.6151 16.7497L12.6145 16.7489L12.6139 16.7482L12.6132 16.7474L12.6126 16.7467L12.612 16.746L12.6114 16.7452L12.6108 16.7445L12.6102 16.7438L12.6095 16.743L12.6089 16.7423L12.6083 16.7416L12.6077 16.7408L12.6071 16.7401L12.6064 16.7394L12.6058 16.7386L12.6052 16.7379L12.6046 16.7372L12.604 16.7364L12.6033 16.7357L12.6027 16.735L12.6021 16.7342L12.6015 16.7335L12.6009 16.7328L12.6003 16.732L12.5996 16.7313L12.599 16.7306L12.5984 16.7298L12.5978 16.7291L12.5972 16.7284L12.5966 16.7276L12.5959 16.7269L12.5953 16.7262L12.5947 16.7254L12.5941 16.7247L12.5935 16.724L12.5929 16.7233L12.5923 16.7225L12.5916 16.7218L12.591 16.7211L12.5904 16.7203L12.5898 16.7196L12.5892 16.7189L12.5886 16.7181L12.5879 16.7174L12.5873 16.7167L12.5867 16.716L12.5861 16.7152L12.5855 16.7145L12.5849 16.7138L12.5843 16.713L12.5837 16.7123L12.583 16.7116L12.5824 16.7109L12.5818 16.7101L12.5812 16.7094L12.5806 16.7087L12.58 16.7079L12.5794 16.7072L12.5787 16.7065L12.5781 16.7058L12.5775 16.705L12.5769 16.7043L12.5763 16.7036L12.5757 16.7029L12.5751 16.7021L12.5745 16.7014L12.5738 16.7007L12.5732 16.6999L12.5726 16.6992L12.572 16.6985L12.5714 16.6978L12.5708 16.697L12.5702 16.6963L12.5696 16.6956L12.569 16.6949L12.5683 16.6941L12.5677 16.6934L12.5671 16.6927L12.5665 16.692L12.5659 16.6912L12.5653 16.6905L12.5647 16.6898L12.5641 16.6891L12.5635 16.6883L12.5629 16.6876L12.5622 16.6869L12.5616 16.6862L12.561 16.6855L12.5604 16.6847L12.5598 16.684L12.5592 16.6833L12.5586 16.6826L12.558 16.6818L12.5574 16.6811L12.5568 16.6804L12.5562 16.6797L12.5555 16.6789L12.5549 16.6782L12.5543 16.6775L12.5537 16.6768L12.5531 16.6761L12.5525 16.6753L12.5519 16.6746L12.5513 16.6739L12.5507 16.6732L12.5501 16.6725L12.5495 16.6717L12.5489 16.671L12.5483 16.6703L12.5476 16.6696L12.547 16.6688L12.5464 16.6681L12.5458 16.6674L12.5452 16.6667L12.5446 16.666L12.544 16.6652L12.5434 16.6645L12.5428 16.6638L12.5422 16.6631L12.5416 16.6624L12.541 16.6616L12.5404 16.6609L12.5398 16.6602L12.5392 16.6595L12.5385 16.6588L12.5379 16.658L12.5373 16.6573L12.5367 16.6566L12.5361 16.6559L12.5355 16.6552L12.5349 16.6545L12.5343 16.6537L12.5337 16.653L12.5331 16.6523L12.5325 16.6516L12.5319 16.6509L12.5313 16.6501L12.5307 16.6494L12.5301 16.6487L12.5295 16.648L12.5289 16.6473L12.5283 16.6466L12.5277 16.6458L12.5271 16.6451L12.5264 16.6444L12.5258 16.6437L12.5252 16.643L12.5246 16.6423L12.524 16.6415L12.5234 16.6408L12.5228 16.6401L12.5222 16.6394L12.5216 16.6387L12.521 16.638L12.5204 16.6372L12.5198 16.6365L12.5192 16.6358L12.5186 16.6351L12.518 16.6344L12.5174 16.6337L12.5168 16.6329L12.5162 16.6322L12.5156 16.6315L12.515 16.6308L12.5144 16.6301L12.5138 16.6294L12.5132 16.6286L12.5126 16.6279L12.512 16.6272L12.5114 16.6265L12.5108 16.6258L12.5102 16.6251L12.5096 16.6244L12.509 16.6236L12.5084 16.6229L12.5078 16.6222L12.5072 16.6215L12.5065 16.6208L12.5059 16.6201L12.5053 16.6194L12.5047 16.6186L12.5041 16.6179L12.5035 16.6172L12.5029 16.6165L12.5023 16.6158L12.5017 16.6151L12.5011 16.6144L12.5005 16.6136L12.4999 16.6129L12.4993 16.6122L12.4987 16.6115L12.4981 16.6108L12.4975 16.6101L12.4969 16.6094L12.4963 16.6086L12.4957 16.6079L12.4951 16.6072L12.4945 16.6065L12.4939 16.6058L12.4933 16.6051L12.4927 16.6044L12.4921 16.6037L12.4915 16.6029L12.4909 16.6022L12.4903 16.6015L12.4897 16.6008L12.4891 16.6001L12.4885 16.5994L12.4879 16.5987L12.4873 16.598L12.4867 16.5972L12.4861 16.5965L12.4855 16.5958L12.4849 16.5951L12.4843 16.5944L12.4837 16.5937L12.4831 16.593L12.4825 16.5923L12.4819 16.5915L12.4813 16.5908L12.4807 16.5901L12.4801 16.5894L12.4795 16.5887L12.4789 16.588L12.4783 16.5873L12.4777 16.5866L12.4771 16.5859L12.4765 16.5851L12.4759 16.5844L12.4753 16.5837L12.4747 16.583L12.4741 16.5823L12.4735 16.5816L12.4729 16.5809L12.4723 16.5802L12.4717 16.5795L12.4711 16.5787L12.4705 16.578L12.4699 16.5773L12.4693 16.5766L12.4687 16.5759L12.4681 16.5752L12.4675 16.5745L12.4669 16.5738L12.4663 16.5731L12.4657 16.5723L12.4651 16.5716L12.4645 16.5709L12.464 16.5702L12.4634 16.5695L12.4628 16.5688L12.4622 16.5681L12.4616 16.5674L12.461 16.5667L12.4604 16.566L12.4598 16.5652L12.4592 16.5645L12.4587 16.564C12.0746 16.2337 11.3508 15.8945 10.4065 15.6671C9.45329 15.4377 8.36582 15.3444 7.36274 15.4524L7.36159 15.4526C7.02307 15.4885 6.14412 15.6376 5.16998 16.2671C4.39729 16.9325 4.22829 17.5918 4.11369 18.0389C4.09868 18.0975 4.0846 18.1524 4.07022 18.2033C3.79751 19.1818 3.70458 20.276 3.76865 21.2567C3.8342 22.26 4.05706 23.0432 4.32904 23.4609Z" stroke="white" stroke-width="1.5"/>
<path id="Vector_3" d="M25.2175 18.3596L25.2109 18.335L25.206 18.31C25.1945 18.2509 25.1733 18.1984 25.1405 18.1477L25.1289 18.1298L25.1184 18.1113C24.8795 17.6916 24.3105 17.1472 23.4879 16.6399C22.6828 16.1434 21.7138 15.7315 20.7623 15.5295L20.7612 15.5293C20.4325 15.459 19.5783 15.3234 18.5184 15.5996C17.6016 15.9826 17.233 16.5761 17.0062 16.9412C16.983 16.9784 16.9614 17.0134 16.9407 17.0454L16.9408 17.0455L16.934 17.0557C16.39 17.871 15.9759 18.847 15.7394 19.7646C15.5043 20.6767 15.4685 21.4369 15.5764 21.8942L15.5765 21.8945L15.5769 21.8954L15.5772 21.8963L15.5776 21.8972L15.578 21.8981L15.5783 21.899L15.5787 21.8999L15.579 21.9008L15.5794 21.9017L15.5798 21.9026L15.5801 21.9035L15.5805 21.9044L15.5809 21.9053L15.5812 21.9062L15.5816 21.9071L15.5819 21.908L15.5823 21.9089L15.5827 21.9098L15.583 21.9107L15.5834 21.9116L15.5837 21.9124L15.5841 21.9133L15.5845 21.9142L15.5848 21.9151L15.5852 21.916L15.5855 21.9169L15.5859 21.9178L15.5863 21.9187L15.5866 21.9196L15.587 21.9205L15.5873 21.9214L15.5877 21.9222L15.5881 21.9231L15.5884 21.924L15.5888 21.9249L15.5891 21.9258L15.5895 21.9267L15.5899 21.9276L15.5902 21.9285L15.5906 21.9294L15.5909 21.9302L15.5913 21.9311L15.5916 21.932L15.592 21.9329L15.5924 21.9338L15.5927 21.9347L15.5931 21.9356L15.5934 21.9365L15.5938 21.9373L15.5942 21.9382L15.5945 21.9391L15.5949 21.94L15.5952 21.9409L15.5956 21.9418L15.5959 21.9426L15.5963 21.9435L15.5967 21.9444L15.597 21.9453L15.5974 21.9462L15.5977 21.9471L15.5981 21.9479L15.5984 21.9488L15.5988 21.9497L15.5991 21.9506L15.5995 21.9515L15.5999 21.9524L15.6002 21.9532L15.6006 21.9541L15.6009 21.955L15.6013 21.9559L15.6016 21.9568L15.602 21.9576L15.6023 21.9585L15.6027 21.9594L15.6031 21.9603L15.6034 21.9612L15.6038 21.962L15.6041 21.9629L15.6045 21.9638L15.6048 21.9647L15.6052 21.9655L15.6055 21.9664L15.6059 21.9673L15.6062 21.9682L15.6066 21.969L15.6069 21.9699L15.6073 21.9708L15.6077 21.9717L15.608 21.9726L15.6084 21.9734L15.6087 21.9743L15.6091 21.9752L15.6094 21.9761L15.6098 21.9769L15.6101 21.9778L15.6105 21.9787L15.6108 21.9795L15.6112 21.9804L15.6115 21.9813L15.6119 21.9822L15.6122 21.983L15.6126 21.9839L15.6129 21.9848L15.6133 21.9857L15.6137 21.9865L15.614 21.9874L15.6144 21.9883L15.6147 21.9891L15.6151 21.99L15.6154 21.9909L15.6158 21.9918L15.6161 21.9926L15.6165 21.9935L15.6168 21.9944L15.6172 21.9952L15.6175 21.9961L15.6179 21.997L15.6182 21.9978L15.6186 21.9987L15.6189 21.9996L15.6193 22.0004L15.6196 22.0013L15.62 22.0022L15.6203 22.0031L15.6207 22.0039L15.621 22.0048L15.6214 22.0057L15.6217 22.0065L15.6221 22.0074L15.6224 22.0083L15.6228 22.0091L15.6231 22.01L15.6235 22.0109L15.6238 22.0117L15.6242 22.0126L15.6245 22.0134L15.6249 22.0143L15.6252 22.0152L15.6256 22.016L15.6259 22.0169L15.6263 22.0178L15.6266 22.0186L15.627 22.0195L15.6273 22.0204L15.6277 22.0212L15.628 22.0221L15.6284 22.023L15.6287 22.0238L15.629 22.0247L15.6294 22.0255L15.6297 22.0264L15.6301 22.0273L15.6304 22.0281L15.6308 22.029L15.6311 22.0298L15.6315 22.0307L15.6318 22.0316L15.6322 22.0324L15.6325 22.0333L15.6329 22.0342L15.6332 22.035L15.6336 22.0359L15.6339 22.0367L15.6343 22.0376L15.6346 22.0385L15.635 22.0393L15.6353 22.0402L15.6356 22.041L15.636 22.0419L15.6363 22.0427L15.6367 22.0436L15.637 22.0445L15.6374 22.0453L15.6377 22.0462L15.6381 22.047L15.6384 22.0479L15.6388 22.0488L15.6391 22.0496L15.6395 22.0505L15.6398 22.0513L15.6402 22.0522L15.6405 22.053L15.6408 22.0539L15.6412 22.0547L15.6415 22.0556L15.6419 22.0565L15.6422 22.0573L15.6426 22.0582L15.6429 22.059L15.6433 22.0599L15.6436 22.0607L15.6439 22.0616L15.6443 22.0624L15.6446 22.0633L15.645 22.0642L15.6453 22.065L15.6457 22.0659L15.646 22.0667L15.6464 22.0676L15.6467 22.0684L15.6471 22.0693L15.6474 22.0701L15.6477 22.071L15.6481 22.0718L15.6484 22.0727L15.6488 22.0735L15.6491 22.0744L15.6495 22.0752L15.6498 22.0761L15.6501 22.0769L15.6505 22.0778L15.6508 22.0786L15.6512 22.0795L15.6515 22.0803L15.6519 22.0812L15.6522 22.0821L15.6526 22.0829L15.6529 22.0838L15.6532 22.0846L15.6536 22.0855L15.6539 22.0863L15.6543 22.0872L15.6546 22.088L15.655 22.0889L15.6553 22.0897L15.6556 22.0906L15.656 22.0914L15.6563 22.0922L15.6567 22.0931L15.657 22.0939L15.6574 22.0948L15.6577 22.0956L15.658 22.0965L15.6584 22.0973L15.6587 22.0982L15.6591 22.099L15.6594 22.0999L15.6597 22.1007L15.6601 22.1016L15.6604 22.1024L15.6608 22.1033L15.6611 22.1041L15.6615 22.105L15.6618 22.1058L15.6621 22.1067L15.6625 22.1075L15.6628 22.1084L15.6632 22.1092L15.6635 22.11L15.6638 22.1109L15.6642 22.1117L15.6645 22.1126L15.6649 22.1134L15.6652 22.1143L15.6656 22.1151L15.6659 22.116L15.6662 22.1168L15.6666 22.1177L15.6669 22.1185L15.6673 22.1193L15.6676 22.1202L15.6679 22.121L15.6683 22.1219L15.6686 22.1227L15.669 22.1236L15.6693 22.1244L15.6696 22.1252L15.67 22.1261L15.6703 22.1269L15.6707 22.1278L15.671 22.1286L15.6713 22.1295L15.6717 22.1303L15.672 22.1311L15.6724 22.132L15.6727 22.1328L15.673 22.1337L15.6734 22.1345L15.6737 22.1354L15.6741 22.1362L15.6744 22.137L15.6747 22.1379L15.6751 22.1387L15.6754 22.1396L15.6758 22.1404L15.6761 22.1413L15.6764 22.1421L15.6768 22.1429L15.6771 22.1438L15.6775 22.1446L15.6778 22.1455L15.6781 22.1463L15.6785 22.1471L15.6788 22.148L15.6792 22.1488L15.6795 22.1497L15.6798 22.1505L15.6802 22.1513L15.6805 22.1522L15.6809 22.153L15.6812 22.1539L15.6815 22.1547L15.6819 22.1555L15.6822 22.1564L15.6826 22.1572L15.6829 22.1581L15.6832 22.1589L15.6836 22.1597L15.6839 22.1606L15.6842 22.1614L15.6846 22.1623L15.6849 22.1631L15.6853 22.1639L15.6856 22.1648L15.6859 22.1656L15.6863 22.1664L15.6866 22.1673L15.687 22.1681L15.6873 22.169L15.6876 22.1698L15.688 22.1706L15.6883 22.1715L15.6886 22.1723L15.689 22.1732L15.6893 22.174L15.6897 22.1748L15.69 22.1757L15.6903 22.1765L15.6907 22.1773L15.691 22.1782L15.6913 22.179L15.6917 22.1799L15.692 22.1807L15.6924 22.1815L15.6927 22.1824L15.693 22.1832L15.6934 22.184L15.6937 22.1849L15.6941 22.1857L15.6944 22.1865L15.6947 22.1874L15.6951 22.1882L15.6954 22.1891L15.6957 22.1899L15.6961 22.1907L15.6964 22.1916L15.6968 22.1924L15.6971 22.1932L15.6974 22.1941L15.6978 22.1949L15.6981 22.1957L15.6984 22.1966L15.6988 22.1974L15.6991 22.1982L15.6994 22.1991L15.6998 22.1999L15.7001 22.2008L15.7005 22.2016L15.7008 22.2024L15.7011 22.2033L15.7015 22.2041L15.7018 22.2049L15.7021 22.2058L15.7025 22.2066L15.7028 22.2074L15.7032 22.2083L15.7035 22.2091L15.7038 22.2099L15.7042 22.2108L15.7045 22.2116L15.7048 22.2124L15.7052 22.2133L15.7055 22.2141L15.7059 22.2149L15.7062 22.2158L15.7065 22.2166L15.7069 22.2174L15.7072 22.2183L15.7075 22.2191L15.7079 22.2199L15.7082 22.2208L15.7085 22.2216L15.7089 22.2224L15.7092 22.2233L15.7096 22.2241L15.7099 22.2249L15.7102 22.2258L15.7106 22.2266L15.7109 22.2274L15.7112 22.2283L15.7116 22.2291L15.7119 22.2299L15.7122 22.2308L15.7126 22.2316L15.7129 22.2324L15.7133 22.2333L15.7136 22.2341L15.7139 22.2349L15.7141 22.2355C15.9653 22.6495 16.5244 23.176 17.3215 23.6676C18.1267 24.1642 19.0957 24.5761 20.0472 24.778L20.0483 24.7783C20.3677 24.8466 21.2158 24.9735 22.2951 24.6898C23.1973 24.3138 23.5471 23.7648 23.7866 23.3891C23.8181 23.3397 23.8477 23.2933 23.8763 23.2506C24.4198 22.4357 24.8335 21.4604 25.0692 20.542C25.3105 19.6017 25.3402 18.8194 25.2175 18.3596Z" stroke="white" stroke-width="1.5"/>
<path id="Vector_4" d="M4.25669 13.0015C5.26931 14.0142 6.25951 14.0758 6.67063 14.1553C8.82381 14.562 11.3499 14.1477 12.4179 13.3144C12.5498 13.2252 12.6603 13.1147 12.7495 12.9828C13.5722 11.9041 13.9971 9.38866 13.5794 7.24652C13.4999 6.83539 13.2464 5.83026 12.4397 4.80244C11.4351 3.7978 10.4072 3.72052 10.0067 3.65168C7.85352 3.24504 5.32742 3.6593 4.2705 4.48157C4.14891 4.60317 4.03837 4.71371 3.92783 4.82425C3.10518 5.9029 2.68025 8.41837 3.09795 10.5605C3.17745 10.9716 3.43929 11.9631 4.25669 13.0015Z" fill="white"/>
</g>
</svg>
