<svg width="24" height="25" viewBox="0 0 24 25" fill="none" xmlns="http://www.w3.org/2000/svg">
<g id="Frame 41">
<path id="Vector" d="M12 6.38889L11.3989 6.83735L11.3988 6.83733L11.3988 6.83725L11.3985 6.83691L11.3975 6.8356L11.3937 6.83045L11.3791 6.81087L11.3264 6.74025L11.1617 6.5193C11.0396 6.35552 10.9058 6.17583 10.8681 6.12465L10.8612 6.11519L10.8612 6.11514C10.4279 5.50684 9.47369 4.52307 8.23931 3.6949C7.00198 2.86474 5.57114 2.25 4.17756 2.25C3.97542 2.25 3.7014 2.33019 3.36638 2.53232C3.03723 2.73092 2.69425 3.0204 2.36941 3.36586C1.7397 4.03555 1.26962 4.81547 1.09995 5.34867C1.09314 5.41214 1.07996 5.47159 1.07296 5.50251C1.06309 5.54617 1.04757 5.60818 1.0317 5.67164C1.02316 5.70578 1.01451 5.74034 1.00659 5.77269C0.955386 5.98157 0.888013 6.27783 0.835036 6.65377C0.729143 7.40522 0.679438 8.48508 0.947203 9.79711C1.47233 12.3702 3.24403 15.9553 8.48591 19.7433H8.5144L8.71766 19.9017C9.53963 20.542 10.4772 21.2975 11.2084 21.891C11.5166 22.1412 11.789 22.3632 12.0009 22.5359C12.061 22.487 12.1262 22.434 12.1957 22.3775C12.3715 22.2345 12.5752 22.0689 12.796 21.8896C13.5281 21.295 14.4639 20.5379 15.2775 19.8933L15.4821 19.7311H15.5144C20.7562 15.949 22.5277 12.3669 23.0528 9.79551C23.3206 8.4843 23.2709 7.40486 23.165 6.6536C23.112 6.27776 23.0446 5.98154 22.9934 5.77268C22.9855 5.74036 22.9769 5.70584 22.9683 5.67174C22.9524 5.60825 22.9369 5.54621 22.927 5.50252C22.92 5.4716 22.9069 5.41217 22.9001 5.3487C22.7304 4.8155 22.2603 4.03556 21.6306 3.36586C21.3057 3.0204 20.9628 2.73092 20.6336 2.53232C20.2986 2.33019 20.0246 2.25 19.8224 2.25C18.4354 2.25 17.0077 2.86429 15.7697 3.6949C14.5416 4.51883 13.5865 5.49767 13.1431 6.10918C13.0814 6.19986 12.9419 6.38617 12.8363 6.52657C12.7741 6.60928 12.7142 6.68836 12.67 6.74668L12.6169 6.81671L12.6021 6.83618L12.5982 6.84134L12.5971 6.84268L12.5969 6.84304L12.5968 6.84314L12.5968 6.84316L12 6.38889ZM12 6.38889L11.3989 6.83736L11.9939 7.63504L12.5968 6.84318L12 6.38889Z" stroke="black" stroke-width="1.5"/>
</g>
</svg>
