<svg width="21" height="21" viewBox="0 0 21 21" fill="none" xmlns="http://www.w3.org/2000/svg">
<g id="Group 25">
<path id="Vector" d="M14.7466 14.0453L14.0113 14.7394C13.6938 15.0392 13.7027 15.554 14.0312 15.8892L17.6198 19.5504C17.9483 19.8855 18.4721 19.9142 18.7896 19.6144L19.5249 18.9202C19.8424 18.6204 19.8335 18.1056 19.505 17.7705L15.9164 14.1093C15.5879 13.7741 15.0641 13.7454 14.7466 14.0453Z" fill="white"/>
<path id="Ellipse 4" d="M14.806 8.19361C14.806 11.8575 11.8286 14.83 8.15301 14.83C4.47737 14.83 1.50002 11.8575 1.50002 8.19361C1.50002 4.52974 4.47737 1.55724 8.15301 1.55724C11.8286 1.55724 14.806 4.52974 14.806 8.19361Z" stroke="white" stroke-width="1.2"/>
</g>
</svg>
