<svg width="20" height="20" viewBox="0 0 20 20" fill="none" xmlns="http://www.w3.org/2000/svg">
<path d="M19.1668 0.665188L19.1668 19.3902C19.1668 19.7007 18.9033 19.9446 18.5939 19.9446C18.2845 19.9446 18.021 19.7007 18.021 19.3902L18.021 1.76275C18.021 1.3969 17.7116 1.09756 17.322 1.09756L2.67829 1.09756C2.2887 1.09756 1.97933 1.3969 1.97933 1.76275L1.97933 19.4457C1.97933 19.7561 1.71579 20 1.40641 20C1.09704 20 0.833496 19.7561 0.833496 19.4457L0.833496 0.665188C0.833496 0.299335 1.14287 0 1.53245 0L18.4679 0C18.8575 0 19.1668 0.299335 19.1668 0.665188Z" fill="black"/>
<path d="M14.5833 3.85813L14.5833 17.1841C14.5833 17.5277 14.3198 17.816 13.9646 17.8493L3.88125 18.836C3.48021 18.8692 3.125 18.5588 3.125 18.1597L3.125 11.0754L10.3437 11.0754L8.29271 13.0599C8.06354 13.2816 8.06354 13.6253 8.29271 13.847C8.52187 14.0688 8.87708 14.0577 9.09479 13.847L12.1312 10.9091C12.2344 10.8093 12.2917 10.6652 12.2917 10.5211C12.2917 10.377 12.2344 10.2328 12.1312 10.1331L9.10625 7.19515C8.87708 6.98451 8.52187 6.98451 8.29271 7.19515C8.075 7.41688 8.075 7.76056 8.29271 7.98229L10.3437 9.96677H3.125L3.125 2.87143C3.125 2.4834 3.48021 2.17298 3.88125 2.20624L13.9646 3.19294C14.3198 3.2262 14.5833 3.51445 14.5833 3.85813Z" fill="black"/>
</svg>
