<svg width="23" height="25" viewBox="0 0 23 25" fill="none" xmlns="http://www.w3.org/2000/svg">
<g id="_&#195;&#144;&#194;&#186;&#195;&#144;&#194;&#190;&#195;&#145;&#226;&#130;&#172;&#195;&#144;&#194;&#190;&#195;&#144;&#194;&#177;&#195;&#144;&#194;&#186;&#195;&#144;&#194;&#176;" clip-path="url(#clip0_64_169)">
<g id="Group">
<path id="Vector" d="M1.75959 9.61537L9.53724 13.8828L9.50056 22.72L1.7229 18.4642L1.75959 9.61537ZM0.830183 7.82468C0.658977 7.82468 0.536687 7.95258 0.536687 8.17351L0.5 18.5689C0.5 18.8828 0.720122 19.2549 1.01362 19.4177L10.2098 24.4526C10.2954 24.4991 10.3688 24.5224 10.4422 24.5224C10.6134 24.5224 10.7235 24.3944 10.7235 24.1735L10.7601 13.7782C10.7601 13.4642 10.54 13.0921 10.2465 12.9293L1.05031 7.89444C0.964703 7.84793 0.891329 7.8363 0.830183 7.8363V7.82468Z" fill="black"/>
<path id="Vector_2" d="M21.2527 9.61538L21.2771 18.3014L13.1815 22.7433L13.157 14.0572L21.2527 9.61538ZM22.1943 7.81305C22.1209 7.81305 22.0475 7.83631 21.9619 7.88282L12.4478 13.1154C12.1543 13.2665 11.9341 13.6503 11.9341 13.9642L11.9586 24.2084C11.9586 24.4293 12.0687 24.5572 12.2399 24.5572C12.3132 24.5572 12.3866 24.534 12.4722 24.4875L21.9864 19.2665C22.2799 19.1037 22.5 18.72 22.5 18.4177L22.4756 8.17351C22.4756 7.95258 22.3655 7.81305 22.1943 7.81305Z" fill="black"/>
</g>
<path id="Vector_3" d="M21.3872 6.40607C21.6807 6.56886 21.6684 6.82468 21.3872 6.97584L11.9097 12.0689C11.6284 12.22 11.1759 12.22 10.8947 12.0689L1.60062 6.8363C1.33158 6.67351 1.33158 6.4177 1.62507 6.26654L11.0903 1.17351C11.3716 1.01072 11.8363 1.02235 12.1176 1.17351L21.3994 6.40607H21.3872ZM11.4205 10.9293L19.3205 6.68514L11.5917 2.32468L3.69178 6.56886L11.4205 10.9293Z" fill="black"/>
</g>
<defs>
<clipPath id="clip0_64_169">
<rect width="22" height="24" fill="white" transform="translate(0.5 0.557236)"/>
</clipPath>
</defs>
</svg>
