<svg width="16" height="16" viewBox="0 0 16 16" fill="none" xmlns="http://www.w3.org/2000/svg">
<g id="basket" clip-path="url(#clip0_31071_2393)">
<path id="Vector" d="M0.572144 6.66553H7.66667H8.33333H15.4279C15.1621 8.43587 14.5779 9.60143 14.3114 10.0697C13.49 11.5036 12.3843 12.8026 11.2644 13.7745C10.1305 14.7584 9.04101 15.3563 8.2589 15.4787C8.05649 15.508 7.89278 15.5054 7.75401 15.4808L7.75403 15.4807L7.74347 15.4791C6.96119 15.3575 5.8706 14.7594 4.7356 13.7745C3.61569 12.8026 2.51003 11.5036 1.6886 10.0697C1.42216 9.60152 0.837916 8.43593 0.572144 6.66553Z" stroke="white"/>
<path id="Vector_2" d="M3.62256 6.22819L3.66642 5.26174C3.66642 5.26174 3.66642 4.57271 4.10501 3.6868C4.35063 3.19463 4.71905 2.73825 5.13133 2.23713C5.5787 1.70022 6.15765 1.25279 6.72782 0.885904C7.24537 0.545859 7.71028 0.438477 7.95589 0.438477C8.54361 0.438477 8.87694 0.626396 9.47344 1.02013C9.93835 1.31543 10.412 1.69127 10.8068 2.14765C11.219 2.63087 11.5085 2.92617 11.8419 3.59731C12.3857 4.68904 12.3506 5.26174 12.3506 5.26174L12.3769 6.16555" stroke="white" stroke-miterlimit="10"/>
</g>
<defs>
<clipPath id="clip0_31071_2393">
<rect width="16" height="16" fill="white"/>
</clipPath>
</defs>
</svg>
