<svg width="24" height="24" viewBox="0 0 24 24" fill="none" xmlns="http://www.w3.org/2000/svg">
<path d="M2.15467 22.5C1.54044 22.5 1.028 22.2979 0.617333 21.8936C0.206667 21.4894 0.000888889 20.9845 0 20.379V7.5585C0 6.95388 0.205778 6.44944 0.617333 6.04519C1.02889 5.64094 1.54089 5.43838 2.15333 5.4375H8V3.61969C8 3.01594 8.20578 2.5115 8.61733 2.10638C9.02889 1.70125 9.54133 1.49913 10.1547 1.5H13.8467C14.46 1.5 14.9724 1.70213 15.384 2.10638C15.7956 2.51063 16.0009 3.01506 16 3.61969V5.4375H21.8467C22.46 5.4375 22.972 5.64006 23.3827 6.04519C23.7933 6.45031 23.9991 6.95475 24 7.5585V20.3803C24 20.9841 23.7942 21.4885 23.3827 21.8936C22.9711 22.2987 22.4591 22.5009 21.8467 22.5H2.15467ZM9.33333 5.4375H14.6667V3.61969C14.6667 3.41844 14.5813 3.23338 14.4107 3.0645C14.24 2.89563 14.052 2.81163 13.8467 2.8125H10.1533C9.94889 2.8125 9.76089 2.8965 9.58933 3.0645C9.41778 3.2325 9.33244 3.41756 9.33333 3.61969V5.4375ZM22.6667 15.2812H14.6667V16.1895C14.6667 16.494 14.5644 16.7469 14.36 16.9481C14.1556 17.1494 13.8987 17.25 13.5893 17.25H10.4107C10.1013 17.25 9.84444 17.1494 9.64 16.9481C9.43556 16.7469 9.33333 16.494 9.33333 16.1895V15.2812H1.33333V20.3803C1.33333 20.5816 1.41867 20.7666 1.58933 20.9355C1.76 21.1044 1.948 21.1884 2.15333 21.1875H21.8467C22.0511 21.1875 22.2391 21.1035 22.4107 20.9355C22.5822 20.7675 22.6676 20.582 22.6667 20.379V15.2812ZM10.6667 15.9375H13.3333V13.3125H10.6667V15.9375ZM1.33333 13.9687H9.33333V13.0605C9.33333 12.756 9.43556 12.5031 9.64 12.3019C9.84444 12.1006 10.1013 12 10.4107 12H13.5893C13.8987 12 14.1556 12.1006 14.36 12.3019C14.5644 12.5031 14.6667 12.756 14.6667 13.0605V13.9687H22.6667V7.5585C22.6667 7.35638 22.5813 7.17088 22.4107 7.002C22.24 6.83313 22.052 6.74913 21.8467 6.75H2.15333C1.94889 6.75 1.76089 6.834 1.58933 7.002C1.41778 7.17 1.33244 7.3555 1.33333 7.5585V13.9687Z" fill="black"/>
</svg>
