<svg width="25" height="25" viewBox="0 0 25 25" fill="none" xmlns="http://www.w3.org/2000/svg">
<g id="&#208;&#191;&#209;&#128;&#208;&#190;&#209;&#132;&#208;&#184;&#208;&#187;&#209;&#140;" clip-path="url(#clip0_64_186)">
<g id="Group 73">
<path id="Vector" d="M1.36558 11.227H7.3559C8.90766 12.3716 10.5066 13.194 11.8733 13.4122C12.2707 13.4847 12.6825 13.4802 13.1133 13.4143L13.1133 13.4143L13.1168 13.4138C14.4862 13.1979 16.0894 12.3741 17.6464 11.2129H23.6367C23.2366 13.7246 22.3696 15.3752 21.9756 16.031L21.9754 16.0312C20.7458 18.0791 19.0892 19.9371 17.4094 21.3299C15.7157 22.7342 14.0824 23.5966 12.9005 23.782C12.5905 23.8166 12.3322 23.8141 12.1084 23.7833C10.9257 23.6009 9.28847 22.7377 7.59056 21.3299C5.91077 19.9371 4.2542 18.0791 3.02457 16.0312L3.02444 16.031C2.63111 15.3765 1.76661 13.7308 1.36558 11.227Z" stroke="black" stroke-width="1.5"/>
<path id="Vector_2" d="M16.8785 5.67868L16.8813 5.70257L16.8856 5.72623C16.8952 5.77932 16.8952 5.83022 16.8856 5.8833L16.882 5.90312L16.8794 5.92309C16.8237 6.3624 16.5432 7.02243 16.0463 7.73868C15.5597 8.44024 14.9154 9.12318 14.2209 9.61955L14.22 9.62024C13.9838 9.78957 13.358 10.1883 12.4432 10.3161C11.6256 10.3028 11.1636 9.94517 10.8619 9.71162C10.8307 9.68753 10.8013 9.66476 10.7734 9.64383L10.7735 9.64374L10.7633 9.63638C10.066 9.13157 9.41722 8.44338 8.92875 7.74135C8.44387 7.04448 8.16892 6.40922 8.10709 5.98309V5.98278V5.98189V5.98099V5.98009V5.9792V5.9783V5.9774V5.97651V5.97561V5.97472V5.97382V5.97293V5.97203V5.97114V5.97025V5.96935V5.96846V5.96757V5.96667V5.96578V5.96489V5.964V5.96311V5.96222V5.96133V5.96043V5.95954V5.95865V5.95776V5.95687V5.95599V5.9551V5.95421V5.95332V5.95243V5.95154V5.95066V5.94977V5.94888V5.948V5.94711V5.94622V5.94534V5.94445V5.94356V5.94268V5.94179V5.94091V5.94003V5.93914V5.93826V5.93737V5.93649V5.93561V5.93472V5.93384V5.93296V5.93208V5.9312V5.93031V5.92943V5.92855V5.92767V5.92679V5.92591V5.92503V5.92415V5.92327V5.92239V5.92151V5.92063V5.91975V5.91888V5.918V5.91712V5.91624V5.91537V5.91449V5.91361V5.91273V5.91186V5.91098V5.91011V5.90923V5.90835V5.90748V5.9066V5.90573V5.90486V5.90398V5.90311V5.90223V5.90136V5.90049V5.89961V5.89874V5.89787V5.897V5.89612V5.89525V5.89438V5.89351V5.89264V5.89177V5.89089V5.89002V5.88915V5.88828V5.88741V5.88654V5.88567V5.8848V5.88394V5.88307V5.8822V5.88133V5.88046V5.87959V5.87873V5.87786V5.87699V5.87612V5.87526V5.87439V5.87352V5.87266V5.87179V5.87093V5.87006V5.86919V5.86833V5.86746V5.8666V5.86573V5.86487V5.86401V5.86314V5.86228V5.86141V5.86055V5.85969V5.85883V5.85796V5.8571V5.85624V5.85538V5.85451V5.85365V5.85279V5.85193V5.85107V5.85021V5.84935V5.84849V5.84762V5.84676V5.8459V5.84504V5.84419V5.84333V5.84247V5.84161V5.84075V5.83989V5.83903V5.83817V5.83732V5.83646V5.8356V5.83474V5.83388V5.83303V5.83217V5.83131V5.83046V5.8296V5.82874V5.82789V5.82703V5.82618V5.82532V5.82446V5.82361V5.82275V5.8219V5.82104V5.82019V5.81934V5.81848V5.81763V5.81677V5.81592V5.81507V5.81421V5.81336V5.81251V5.81165V5.8108V5.80995V5.8091V5.80824V5.80739V5.80654V5.80569V5.80484V5.80399V5.80313V5.80228V5.80143V5.80058V5.79973V5.79888V5.79803V5.79718V5.79633V5.79548V5.79463V5.79378V5.79293V5.79208V5.79123V5.79039V5.78954V5.78869V5.78784V5.78699V5.78614V5.7853V5.78445V5.7836V5.78275V5.7819V5.78106V5.78021V5.77936V5.77852V5.77767V5.77682V5.77598V5.77513V5.77428V5.77344V5.77259V5.77175V5.7709V5.77006V5.76921V5.76837V5.76752V5.76667V5.76583V5.76499V5.76414V5.7633V5.76245V5.76161V5.76076V5.75992V5.75908V5.75823V5.75739V5.75655V5.7557V5.75486V5.75402V5.75317V5.75233V5.75149V5.75065V5.7498V5.74896V5.74812V5.74728V5.74644V5.74559V5.74475V5.74391V5.74307V5.74223V5.74139V5.74055V5.7397V5.73886V5.73802V5.73718V5.73634V5.7355V5.73466V5.73382V5.73298V5.73214V5.7313V5.73046V5.72962V5.72878V5.72794V5.7271V5.72626V5.72542V5.72459V5.72375V5.72291V5.72207V5.72123V5.72039V5.71955V5.71871V5.71788V5.71704V5.7162V5.71536V5.71452V5.71369V5.71285V5.71201V5.71117V5.71034V5.7095V5.70866V5.70782V5.70699V5.70615V5.70531V5.70448V5.70364V5.7028V5.70197V5.70113V5.70029V5.69946V5.69862V5.69778V5.69695V5.69611V5.69528V5.69444V5.6936V5.69277V5.69193V5.6911V5.69026V5.68943V5.68859V5.68776V5.68692V5.68609V5.68525V5.68442V5.68358V5.68275V5.68191V5.68108V5.68024V5.67941V5.67857V5.67774V5.6769V5.67607V5.67524V5.6744V5.67357V5.67273V5.6719V5.67107V5.67023V5.6694V5.66856V5.66773V5.6669V5.66606V5.66523V5.6644V5.66356V5.66273V5.6619V5.66106V5.66023V5.6594V5.65856V5.65773V5.6569V5.65607V5.65523V5.6544V5.65357V5.65273V5.6519V5.65107V5.65024V5.6494V5.64857V5.64774V5.64691V5.64607V5.64524V5.64441V5.64408C8.17483 5.20531 8.45307 4.56444 8.9342 3.87086C9.42085 3.16929 10.0652 2.48636 10.7596 1.98998L10.7606 1.98929C10.9886 1.82576 11.6126 1.43591 12.5465 1.30759C13.3503 1.31975 13.7824 1.64617 14.0975 1.88409C14.1397 1.91598 14.1798 1.94627 14.2184 1.97401C14.9153 2.47871 15.5634 3.16636 16.0513 3.86929C16.5507 4.58861 16.8281 5.24522 16.8785 5.67868Z" stroke="black" stroke-width="1.5"/>
</g>
</g>
<defs>
<clipPath id="clip0_64_186">
<rect width="24" height="24" fill="white" transform="translate(0.5 0.557236)"/>
</clipPath>
</defs>
</svg>
