<svg width="24" height="24" viewBox="0 0 24 24" fill="none" xmlns="http://www.w3.org/2000/svg">
<rect x="0.675" y="0.675" width="22.65" height="22.65" rx="11.325" stroke="black" stroke-width="1.35"/>
<path d="M7.85287 8.8643C6.99255 10.9936 6.24385 16.1899 10.9068 19.7689C8.00344 18.9731 3.93844 14.4779 4.39009 11.6819C4.45461 11.3592 5.7666 9.76764 7.85287 8.8643Z" fill="black"/>
<path d="M15.5097 8.21906C11.6813 6.15432 7.55178 7.35877 5.50852 8.99335C6.18244 7.75307 8.26584 5.08323 11.2081 4.32615C11.5379 4.25445 12.2921 4.15408 12.6707 4.32615C13.3374 4.76346 14.8387 6.15428 15.5097 8.21906Z" fill="black"/>
<path d="M15.2516 5.42305C16.7357 7.35877 17.8971 10.9076 16.1765 14.9511C16.9078 14.5926 18.594 13.4885 19.4887 11.94C19.6536 11.7464 19.8285 11.0926 19.2091 10.0258C18.5854 8.85716 16.9207 6.30057 15.2516 5.42305Z" fill="black"/>
<path d="M9.42297 16.4782C11.244 17.1592 15.7506 17.6224 19.2091 14.0262C18.6284 15.3239 16.8217 18.0913 14.3053 19.3172C13.7781 19.5741 13.1654 20.0055 12.3911 19.4893C11.7387 19.1165 10.2317 17.9923 9.42297 16.4782Z" fill="black"/>
<circle cx="12.0675" cy="12.069" r="3.69938" fill="black"/>
</svg>
