<svg width="24" height="24" viewBox="0 0 24 24" fill="none" xmlns="http://www.w3.org/2000/svg">
<g clip-path="url(#clip0_81_2913)">
<path d="M3.81006 6.90747L4.60006 20.5964C4.62006 20.9121 4.89006 21.1667 5.20006 21.1667H18.7901C19.1201 21.1667 19.3801 20.9121 19.4001 20.5964L20.1901 6.90747L3.81006 6.90747ZM7.29006 20.0565H7.27006C7.11006 20.0565 6.97006 19.9241 6.96006 19.7714L6.18006 8.34358C6.17006 8.18062 6.30006 8.02784 6.47006 8.01766H6.49006C6.65006 8.01766 6.79006 8.13988 6.80006 8.30284L7.58006 19.7306C7.59006 19.8936 7.46006 20.0464 7.29006 20.0565ZM17.8101 8.34358L17.0301 19.7714C17.0201 19.9343 16.8801 20.0667 16.7001 20.0565C16.5501 20.0464 16.4101 19.9038 16.4101 19.751V19.7306L17.1901 8.30284C17.2001 8.12969 17.3401 8.00747 17.5201 8.01766C17.6701 8.02784 17.8101 8.17043 17.8101 8.32321V8.34358Z" fill="#C44536"/>
<path d="M21.3797 5.88887L2.61967 5.88887C2.19967 5.88887 1.89967 5.48146 2.02967 5.08424L2.64967 3.25091C2.72967 2.99628 2.96967 2.83331 3.22967 2.83331L20.7697 2.83331C21.0297 2.83331 21.2697 3.00646 21.3497 3.25091L21.9597 5.08424C22.0897 5.48146 21.7997 5.88887 21.3797 5.88887Z" fill="#C44536"/>
</g>
<defs>
<clipPath id="clip0_81_2913">
<rect width="20" height="18.3333" fill="white" transform="translate(2 2.83331)"/>
</clipPath>
</defs>
</svg>
